# xmcd
#
# Track frame offsets: 
#        150
#        10141
#        20525
#        45913
#        58890
#        72070
#        87752
#        106570
#        121985
#        140578
#        157278
#        172181
#        184903
#        195542
#        207394
#        221009
#        233753
#        249438
#        266161
#        276948
#
# Disc length: 3867 seconds
#
# Revision: 0
# Processed by: cddbd v1.5.2PL0 Copyright (c) Steve Scherf et al.
# Submitted via: ExactAudioCopy v0.99pb4
#
DISCID=240f1914
DTITLE=Jackie Wilson - The History Of Jackie Wilson Vol 2 - Sets The S
DTITLE=tandards, CD2
DYEAR=2006
DGENRE=Soul
TTITLE0=I'll Be Home For Christmas
TTITLE1=Yes Indeed [duet with Linda Hopkins]
TTITLE2=St. James' Infirmary
TTITLE3=Pianissimo
TTITLE4=I Apologise
TTITLE5=Body And Soul
TTITLE6=I Got It Bad (And That Ain't Good)
TTITLE7=Mood Indigo
TTITLE8=Try A Little Tenderness
TTITLE9=Tenderly
TTITLE10=Story Weather (Keeps Rainin' All The Time)
TTITLE11=Cry
TTITLE12=By The Light Of The Silvery Moon
TTITLE13=My Yiddishe Momme
TTITLE14=Alone At Last
TTITLE15=Night
TTITLE16=Danny Boy
TTITLE17=Sonny Boy
TTITLE18=Blue Moon
TTITLE19=We'll Be Together Again
EXTD=
EXTT0=
EXTT1=
EXTT2=
EXTT3=
EXTT4=
EXTT5=
EXTT6=
EXTT7=
EXTT8=
EXTT9=
EXTT10=
EXTT11=
EXTT12=
EXTT13=
EXTT14=
EXTT15=
EXTT16=
EXTT17=
EXTT18=
EXTT19=
PLAYORDER=
